<?xml version="1.0" standalone="no"?><!DOCTYPE svg PUBLIC "-//W3C//DTD SVG 1.1//EN" "http://www.w3.org/Graphics/SVG/1.1/DTD/svg11.dtd"><svg t="1690510688600" class="icon" viewBox="0 0 1024 1024" version="1.1" xmlns="http://www.w3.org/2000/svg" p-id="4371" xmlns:xlink="http://www.w3.org/1999/xlink" width="128" height="128"><path d="M660.97 522.909c35.031-37.94 55.394-90.546 55.394-145.94 0-125.575-102.182-227.757-227.879-227.757-125.575 0-227.879 102.303-227.879 227.757 0 84.606 46.788 157.697 113.939 195.637-122.424 40.849-215.879 168-233.454 302.303h463.636c-35.031-37.94-66.425-106.667-66.425-162.061 0-84.728 49.697-157.818 122.666-189.939v0M660.97 522.909v0z" p-id="4372"></path><path d="M736.97 560.969c-81.818 0-146.061 67.151-146.061 148.849s67.151 148.97 146.061 148.97c81.697-0.121 145.94-67.273 145.94-148.97 0-81.818-64.242-148.849-145.94-148.849v0M736.97 788.727l-14.545 17.575-76-81.818 26.303-26.182 46.667 49.697 90.546-113.939 29.213 23.394-102.182 131.273M736.97 788.727v0z" p-id="4373"></path></svg>