<?xml version="1.0" standalone="no"?><!DOCTYPE svg PUBLIC "-//W3C//DTD SVG 1.1//EN" "http://www.w3.org/Graphics/SVG/1.1/DTD/svg11.dtd"><svg t="1671868490199" class="icon" viewBox="0 0 1024 1024" version="1.1" xmlns="http://www.w3.org/2000/svg" p-id="2986" xmlns:xlink="http://www.w3.org/1999/xlink" width="128" height="128"><path d="M835.1 200.9c-7.7 0.3-15.3 0.4-22.7 0.4-194.9 0-280.9-82.6-281.6-83.3l-19.4-19.7-19.6 19.7c-0.8 0.9-85 83.3-281.5 83.3-7.4 0-15-0.1-22.7-0.4l-27.4-0.9v374.4c0 98 35.4 241 341.6 350.4l9.6 3.4 9.6-3.4c306.2-109.4 341.6-252.4 341.6-350.4V200l-27.5 0.9M481.2 671.2L304.8 517.6l46.8-37.3 93.8 68S574.9 416.6 700 355l17.9 19.8S561.6 502.2 481.2 671.2m0 0" p-id="2987"></path></svg>